<svg width="72" height="72" viewBox="0 0 72 72" fill="none" xmlns="http://www.w3.org/2000/svg">
<path d="M36 6C19.44 6 6 19.44 6 36C6 52.56 19.44 66 36 66C52.56 66 66 52.56 66 36C66 19.44 52.56 6 36 6ZM48.09 37.59L39.09 46.59C38.64 47.04 38.07 47.25 37.5 47.25C36.93 47.25 36.36 47.04 35.91 46.59C35.04 45.72 35.04 44.28 35.91 43.41L41.07 38.25H25.5C24.27 38.25 23.25 37.23 23.25 36C23.25 34.77 24.27 33.75 25.5 33.75H41.07L35.91 28.59C35.04 27.72 35.04 26.28 35.91 25.41C36.78 24.54 38.22 24.54 39.09 25.41L48.09 34.41C48.96 35.28 48.96 36.72 48.09 37.59Z" fill="#437373"/>
</svg>
