<svg width="72" height="74" viewBox="0 0 72 74" fill="none" xmlns="http://www.w3.org/2000/svg">
<g filter="url(#filter0_d_238_183)">
<path d="M36 6C19.44 6 6 19.44 6 36C6 52.56 19.44 66 36 66C52.56 66 66 52.56 66 36C66 19.44 52.56 6 36 6ZM48.09 37.59L39.09 46.59C38.64 47.04 38.07 47.25 37.5 47.25C36.93 47.25 36.36 47.04 35.91 46.59C35.04 45.72 35.04 44.28 35.91 43.41L41.07 38.25H25.5C24.27 38.25 23.25 37.23 23.25 36C23.25 34.77 24.27 33.75 25.5 33.75H41.07L35.91 28.59C35.04 27.72 35.04 26.28 35.91 25.41C36.78 24.54 38.22 24.54 39.09 25.41L48.09 34.41C48.96 35.28 48.96 36.72 48.09 37.59Z" fill="#437373"/>
</g>
<defs>
<filter id="filter0_d_238_183" x="-4" y="0" width="80" height="80" filterUnits="userSpaceOnUse" color-interpolation-filters="sRGB">
<feFlood flood-opacity="0" result="BackgroundImageFix"/>
<feColorMatrix in="SourceAlpha" type="matrix" values="0 0 0 0 0 0 0 0 0 0 0 0 0 0 0 0 0 0 127 0" result="hardAlpha"/>
<feOffset dy="4"/>
<feGaussianBlur stdDeviation="2"/>
<feComposite in2="hardAlpha" operator="out"/>
<feColorMatrix type="matrix" values="0 0 0 0 0 0 0 0 0 0 0 0 0 0 0 0 0 0 0.25 0"/>
<feBlend mode="normal" in2="BackgroundImageFix" result="effect1_dropShadow_238_183"/>
<feBlend mode="normal" in="SourceGraphic" in2="effect1_dropShadow_238_183" result="shape"/>
</filter>
</defs>
</svg>
